<?xml version="1.0" encoding="utf-8"?>
<!-- Generator: Adobe Illustrator 28.1.0, SVG Export Plug-In . SVG Version: 6.00 Build 0)  -->
<svg version="1.1" id="pics_n_palette" xmlns="http://www.w3.org/2000/svg" xmlns:xlink="http://www.w3.org/1999/xlink" x="0px"
	 y="0px" viewBox="0 0 355.9 40.7" style="enable-background:new 0 0 355.9 40.7;" xml:space="preserve">
<style type="text/css">
	.st0{enable-background:new    ;}
	.st1{fill:#06E0AC;}
</style>
<g class="st0">
	<path class="st1" d="M24,21.7c0,7.6-2.2,9.9-4.8,9.9c-1.8,0-3.3-1-3.3-3.6V21h-1.8c0,5.2-1.7,10.7-7.4,10.7c-3.1,0-5.3-1.8-5.3-4.6
		c0-4.1,4.4-5.7,9.4-6.2C5.8,20.6,3,19.5,3,16.6c0-3.3,3.1-5.4,8-5.4c5.3,0,8.6,2.6,8.6,8.3V27c0,1.2,0.5,1.6,1.2,1.6
		c1,0,3-0.9,3-7.3c0-3.4-0.6-6.5-1.3-9.8h0.4C23.4,14.8,24,17.8,24,21.7z M15.9,19.8c0-2.7-1.1-5.6-6.2-5.6c-3,0-5.1,1-5.1,3.1
		c0,2.5,2.7,3.4,9.2,3.4h2.2V19.8z M13.8,21c-6.1,0-8.9,1.8-8.9,4.7c0,1.9,1.3,2.9,3.1,2.9C11.9,28.6,13.8,25.6,13.8,21z"/>
	<path class="st1" d="M48.8,11.5v3.2H36.4c5.8,0.8,9.5,4.2,9.5,8.5c0,4-3,8.1-9.6,8.1v-3.2c4.2,0,6-2.8,6-5.7c0-3.7-1.8-7.6-8.6-7.6
		v-3.2h8.4c-5.6-0.4-7.7-1.4-7.7-3.5c0-2.5,3.1-4.1,6.6-4.1c3.3,0,7.4,1.5,7.4,5.8h-3.6c0-2.1-2.3-2.9-4.5-2.9c-1.7,0-4.6,0.5-4.6,2
		C35.6,10,37.7,11.5,48.8,11.5z"/>
	<path class="st1" d="M71.1,11.5v19.8h-3.6v-6.7c-0.7,4.2-3.5,7.1-7.9,7.1c-4.9,0-7.6-3.3-7.6-8.6V11.5h3.6v10.8
		c0,4.2,2.2,6.3,5.6,6.3c3.4,0,6.3-2.1,6.3-6.3V11.5H71.1z"/>
	<path class="st1" d="M79.7,31.3h-3.6V4.7h3.6V31.3z"/>
	<path class="st1" d="M88.4,31.3h-3.6V4.7h3.6V31.3z"/>
	<path class="st1" d="M108.5,11.5v3.2c-10.5,0-13.7,4-13.7,8.1c0,3.5,2.7,5.4,5.9,5.4c3.4,0,7.4-2.3,7.4-7.7h0.4
		c0,7.6-2.9,11.2-8.1,11.2c-5.4,0-8.1-3.9-8.1-7.7c0-5.2,4.2-8.4,12.2-9.2H91.3v-3.2h6.8V4.7h3.6v6.8H108.5z"/>
	<path class="st1" d="M110.9,6.6c0-1.4,1.2-2.7,2.7-2.7c1.4,0,2.7,1.2,2.7,2.7c0,1.5-1.2,2.7-2.7,2.7C112.1,9.3,110.9,8.1,110.9,6.6
		z M115.4,31.3h-3.6V11.5h3.6V31.3z"/>
	<path class="st1" d="M148.5,18.3v13h-3.6V19.1c0-3.1-1.5-4.9-4.1-4.9s-4.6,1.7-4.6,4.9v12.2h-3.6V19.1c0-3.1-1.5-4.9-4.1-4.9
		c-2.6,0-4.6,1.7-4.6,4.9v12.2h-3.6V11.5h3.6V17c0.6-3.3,2.7-5.8,6.3-5.8s5.6,2.4,5.9,6.1c0.5-3.5,2.6-6.1,6.3-6.1
		C146.5,11.1,148.5,14.1,148.5,18.3z"/>
	<path class="st1" d="M173.5,21.4c0,5.5-3.2,10.3-9.8,10.3c-6.4,0-11.1-4.7-11.1-10.3c0-5.5,4.4-10.3,10.7-10.3
		C170.3,11.1,173.5,15.9,173.5,21.4z M173.2,21.4h-16.9c0,4,3.1,7,8.3,7C169.9,28.4,173,25.7,173.2,21.4z M156.7,18.7h13
		c-0.7-2.7-2.6-4.5-6.4-4.5C159.8,14.2,157.5,16,156.7,18.7z"/>
	<path class="st1" d="M206.4,4.7v26.6h-3.6v-7.9c-0.7,4.6-3.4,8.3-8.4,8.3c-5.7,0-9.7-4.7-9.7-10.3c0-5.5,4-10.3,9.7-10.3
		c5,0,7.7,3.6,8.4,8.3V4.7H206.4z M202.8,21.4c0-4-2.7-7-7.2-7c-4.5,0-7.2,3.1-7.2,7c0,4,2.7,7,7.2,7
		C200.1,28.4,202.8,25.4,202.8,21.4z"/>
	<path class="st1" d="M231.4,21.4c0,5.5-3.2,10.3-9.8,10.3c-6.4,0-11.1-4.7-11.1-10.3c0-5.5,4.4-10.3,10.7-10.3
		C228.2,11.1,231.4,15.9,231.4,21.4z M231.1,21.4h-16.9c0,4,3.1,7,8.3,7C227.8,28.4,230.9,25.7,231.1,21.4z M214.6,18.7h13
		c-0.7-2.7-2.6-4.5-6.4-4.5C217.8,14.2,215.5,16,214.6,18.7z"/>
	<path class="st1" d="M253.6,25.3c0,3.7-3.7,6.4-9.9,6.4c-5.8,0-9-2.8-9-6.3c0-1.8,0.8-3.3,2.3-4.5c-1.1-0.8-1.8-1.9-1.8-3.7
		c0-3.1,3.3-6.1,9.2-6.1c6.3,0,8.3,3.3,8.4,6.8c-4.7,0-8.3,0.4-11,1.2c0.7,0.1,1.5,0.2,2.5,0.3C251.1,20.2,253.6,21.6,253.6,25.3z
		 M250,25.9c0-1.9-1.4-2.6-6.5-3.2c-2.2-0.3-4.5-0.6-6-1.5c-1.2,1-1.7,2.2-1.7,3.5c0,3.1,3.3,4.7,6.8,4.7
		C247.9,29.3,250,27.5,250,25.9z M241,19c2.2-0.6,4.9-1.1,8.2-1.3c-0.2-1.6-1.4-3.5-5.3-3.5c-3.2,0-5.1,1.2-5.1,2.8
		C238.8,18,239.5,18.6,241,19z"/>
	<path class="st1" d="M256.6,6.6c0-1.4,1.2-2.7,2.7-2.7c1.4,0,2.7,1.2,2.7,2.7c0,1.5-1.2,2.7-2.7,2.7C257.9,9.3,256.6,8.1,256.6,6.6
		z M261.1,31.3h-3.6V11.5h3.6V31.3z"/>
	<path class="st1" d="M287.6,30.7c0,5.1-5.3,8.1-11.9,8.1c-5.5,0-9.7-1.7-9.7-5.5c0-1.4,0.5-2.7,1.8-4c-1-0.6-1.6-1.6-1.6-3
		c0-1.7,0.8-3,1.9-4.3c-1.2-1.1-1.9-2.6-1.9-4.3c0-4.3,4.4-6.7,9-6.7c2.9,0,5.7,0.9,7.4,2.7c1.4-1,2.4-2.1,2.4-3.5
		c0-2.1-2-2.5-4.2-2.5V4.7c3.7,0,5.6,1.3,5.6,4c0,2.3-1.5,4.1-3.5,5.5c0.8,1,1.3,2.2,1.3,3.7c0,4.3-4.4,6.7-9,6.7
		c-2.6,0-5-0.7-6.7-2.1c-0.9,1-1.4,2.1-1.4,3.2c0,1.7,1.1,2.6,2.5,2.6c4,0,7.1-2.5,11.9-2.5C285.5,25.7,287.6,27.7,287.6,30.7z
		 M284,31.7c0-1.8-1.1-2.9-3.5-2.9c-3.9,0-6.4,1.3-10,1.3c-0.9,0-1.8-0.1-2.4-0.5c-0.7,0.9-1.2,2-1.2,3.1c0,3.2,3.6,4.1,7.7,4.1
		C280,36.7,284,34.4,284,31.7z M269.7,17.8c0,0.9,0.4,1.7,1,2.3c1.4-0.9,2.9-1.7,4.5-2.4c1.5-0.7,3.1-1.4,4.6-2.1
		c-1-0.9-2.6-1.4-4.5-1.4C272,14.1,269.7,15.5,269.7,17.8z M280,15.8c-1.6,0.8-3.3,1.5-4.8,2.2c-1.6,0.7-3.1,1.5-4.3,2.3
		c1,0.8,2.5,1.2,4.2,1.2c3.2,0,5.5-1.3,5.5-3.7C280.7,17,280.4,16.3,280,15.8z"/>
	<path class="st1" d="M309.6,19.8v11.5H306V20.5c0-4.2-2.2-6.3-5.8-6.3s-6.5,2.1-6.5,6.3v10.8h-3.6V11.5h3.6v6.8
		c0.7-4.2,3.5-7.1,8.1-7.1C306.9,11.1,309.6,14.4,309.6,19.8z"/>
	<path class="st1" d="M334.6,21.4c0,5.5-3.2,10.3-9.8,10.3c-6.4,0-11.1-4.7-11.1-10.3c0-5.5,4.4-10.3,10.7-10.3
		C331.4,11.1,334.6,15.9,334.6,21.4z M334.2,21.4h-16.9c0,4,3.1,7,8.3,7C331,28.4,334,25.7,334.2,21.4z M317.7,18.7h13
		c-0.7-2.7-2.6-4.5-6.4-4.5C320.9,14.2,318.6,16,317.7,18.7z"/>
	<path class="st1" d="M354.7,19.1h-3.6c0-2.4-0.9-4.5-3.6-4.5c-2.7,0-5.2,2.1-5.2,9.5v7.2h-3.6V11.9h3.6v8.3
		c0.6-5.9,2.7-8.7,6.5-8.7C353.1,11.5,354.7,14.8,354.7,19.1z"/>
</g>
</svg>
