<?xml version="1.0" encoding="utf-8"?>
<!-- Generator: Adobe Illustrator 28.1.0, SVG Export Plug-In . SVG Version: 6.00 Build 0)  -->
<svg version="1.1" id="pics_n_palette" xmlns="http://www.w3.org/2000/svg" xmlns:xlink="http://www.w3.org/1999/xlink" x="0px"
	 y="0px" viewBox="0 0 392.1 40.7" style="enable-background:new 0 0 392.1 40.7;" xml:space="preserve">
<style type="text/css">
	.st0{enable-background:new    ;}
	.st1{fill:#131A33;}
</style>
<g class="st0">
	<path class="st1" d="M24,21.7c0,7.6-2.2,9.9-4.8,9.9c-1.8,0-3.3-1-3.3-3.6V21h-1.8c0,5.2-1.7,10.7-7.4,10.7c-3.1,0-5.3-1.8-5.3-4.6
		c0-4.1,4.4-5.7,9.4-6.2C5.8,20.6,3,19.5,3,16.6c0-3.3,3.1-5.4,8-5.4c5.3,0,8.6,2.6,8.6,8.3V27c0,1.2,0.5,1.6,1.2,1.6
		c1,0,3-0.9,3-7.3c0-3.4-0.6-6.5-1.3-9.8h0.4C23.4,14.8,24,17.8,24,21.7z M15.9,19.8c0-2.7-1.1-5.6-6.2-5.6c-3,0-5.1,1-5.1,3.1
		c0,2.5,2.7,3.4,9.2,3.4h2.2V19.8z M13.8,21c-6.1,0-8.9,1.8-8.9,4.7c0,1.9,1.3,2.9,3.1,2.9C11.9,28.6,13.8,25.6,13.8,21z"/>
	<path class="st1" d="M57.2,21.4c0,5.5-4,10.3-9.7,10.3c-5,0-7.7-3.6-8.4-8.3v14.4h-3.6V11.5h3.6v7.9c0.7-4.6,3.4-8.3,8.4-8.3
		C53.2,11.1,57.2,15.9,57.2,21.4z M53.4,21.4c0-4-2.7-7-7.2-7s-7.2,3.1-7.2,7c0,4,2.7,7,7.2,7S53.4,25.4,53.4,21.4z"/>
	<path class="st1" d="M82.8,21.7c0,7.6-2.2,9.9-4.8,9.9c-1.8,0-3.3-1-3.3-3.6V21h-1.8c0,5.2-1.7,10.7-7.4,10.7
		c-3.1,0-5.3-1.8-5.3-4.6c0-4.1,4.4-5.7,9.4-6.2c-5.1-0.3-7.9-1.3-7.9-4.3c0-3.3,3.1-5.4,8-5.4c5.3,0,8.6,2.6,8.6,8.3V27
		c0,1.2,0.5,1.6,1.2,1.6c1,0,3-0.9,3-7.3c0-3.4-0.6-6.5-1.3-9.8h0.4C82.2,14.8,82.8,17.8,82.8,21.7z M74.7,19.8
		c0-2.7-1.1-5.6-6.2-5.6c-3,0-5.1,1-5.1,3.1c0,2.5,2.7,3.4,9.2,3.4h2.2V19.8z M72.6,21c-6.1,0-8.9,1.8-8.9,4.7
		c0,1.9,1.3,2.9,3.1,2.9C70.7,28.6,72.6,25.6,72.6,21z"/>
	<path class="st1" d="M102.4,19.1h-3.6c0-2.4-0.9-4.5-3.6-4.5c-2.7,0-5.2,2.1-5.2,9.5v7.2h-3.6V11.9H90v8.3c0.6-5.9,2.7-8.7,6.5-8.7
		C100.8,11.5,102.4,14.8,102.4,19.1z"/>
	<path class="st1" d="M120.4,11.5v3.2c-10.5,0-13.7,4-13.7,8.1c0,3.5,2.7,5.4,5.9,5.4c3.4,0,7.4-2.3,7.4-7.7h0.4
		c0,7.6-2.9,11.2-8.1,11.2c-5.4,0-8.1-3.9-8.1-7.7c0-5.2,4.2-8.4,12.2-9.2h-13.3v-3.2h6.8V4.7h3.6v6.8H120.4z"/>
	<path class="st1" d="M146.7,11.5v3.2c-10.5,0-13.7,4-13.7,8.1c0,3.5,2.7,5.4,5.9,5.4c3.4,0,7.4-2.3,7.4-7.7h0.4
		c0,7.6-2.9,11.2-8.1,11.2c-5.4,0-8.1-3.9-8.1-7.7c0-5.2,4.2-8.4,12.2-9.2h-13.3v-3.2h6.8V4.7h3.6v6.8H146.7z"/>
	<path class="st1" d="M149,6.6c0-1.4,1.2-2.7,2.7-2.7c1.4,0,2.7,1.2,2.7,2.7c0,1.5-1.2,2.7-2.7,2.7C150.2,9.3,149,8.1,149,6.6z
		 M153.5,31.3h-3.6V11.5h3.6V31.3z"/>
	<path class="st1" d="M186.6,18.3v13H183V19.1c0-3.1-1.5-4.9-4.1-4.9s-4.6,1.7-4.6,4.9v12.2h-3.6V19.1c0-3.1-1.5-4.9-4.1-4.9
		c-2.6,0-4.6,1.7-4.6,4.9v12.2h-3.6V11.5h3.6V17c0.6-3.3,2.7-5.8,6.3-5.8s5.6,2.4,5.9,6.1c0.5-3.5,2.6-6.1,6.3-6.1
		C184.6,11.1,186.6,14.1,186.6,18.3z"/>
	<path class="st1" d="M211.6,21.4c0,5.5-3.2,10.3-9.8,10.3c-6.4,0-11.1-4.7-11.1-10.3c0-5.5,4.4-10.3,10.7-10.3
		C208.4,11.1,211.6,15.9,211.6,21.4z M211.3,21.4h-16.9c0,4,3.1,7,8.3,7C208,28.4,211.1,25.7,211.3,21.4z M194.8,18.7h13
		c-0.7-2.7-2.6-4.5-6.4-4.5C198,14.2,195.7,16,194.8,18.7z"/>
	<path class="st1" d="M244.5,4.7v26.6h-3.6v-7.9c-0.7,4.6-3.4,8.3-8.4,8.3c-5.7,0-9.7-4.7-9.7-10.3c0-5.5,4-10.3,9.7-10.3
		c5,0,7.7,3.6,8.4,8.3V4.7H244.5z M240.9,21.4c0-4-2.7-7-7.2-7c-4.5,0-7.2,3.1-7.2,7c0,4,2.7,7,7.2,7
		C238.2,28.4,240.9,25.4,240.9,21.4z"/>
</g>
<g class="st0">
	<path class="st1" d="M265.6,19.1H262c0-2.4-0.9-4.5-3.6-4.5c-2.7,0-5.2,2.1-5.2,9.5v7.2h-3.6V11.9h3.6v8.3c0.6-5.9,2.7-8.7,6.5-8.7
		C264,11.5,265.6,14.8,265.6,19.1z"/>
</g>
<g class="st0">
	<path class="st1" d="M287.7,21.4c0,5.5-3.2,10.3-9.8,10.3c-6.4,0-11.1-4.7-11.1-10.3c0-5.5,4.4-10.3,10.7-10.3
		C284.5,11.1,287.7,15.9,287.7,21.4z M287.4,21.4h-16.9c0,4,3.1,7,8.3,7C284.1,28.4,287.2,25.7,287.4,21.4z M270.9,18.7h13
		c-0.7-2.7-2.6-4.5-6.4-4.5C274.1,14.2,271.8,16,270.9,18.7z"/>
	<path class="st1" d="M313.4,21.7c0,7.6-2.2,9.9-4.8,9.9c-1.8,0-3.3-1-3.3-3.6V21h-1.8c0,5.2-1.7,10.7-7.4,10.7
		c-3.1,0-5.3-1.8-5.3-4.6c0-4.1,4.4-5.7,9.4-6.2c-5.1-0.3-7.9-1.3-7.9-4.3c0-3.3,3.1-5.4,8-5.4c5.3,0,8.6,2.6,8.6,8.3V27
		c0,1.2,0.5,1.6,1.2,1.6c1,0,3-0.9,3-7.3c0-3.4-0.6-6.5-1.3-9.8h0.4C312.8,14.8,313.4,17.8,313.4,21.7z M305.3,19.8
		c0-2.7-1.1-5.6-6.2-5.6c-3,0-5.1,1-5.1,3.1c0,2.5,2.7,3.4,9.2,3.4h2.2V19.8z M303.1,21c-6.1,0-8.9,1.8-8.9,4.7
		c0,1.9,1.3,2.9,3.1,2.9C301.2,28.6,303.1,25.6,303.1,21z"/>
	<path class="st1" d="M345,18.3v13h-3.6V19.1c0-3.1-1.5-4.9-4.1-4.9s-4.6,1.7-4.6,4.9v12.2h-3.6V19.1c0-3.1-1.5-4.9-4.1-4.9
		s-4.6,1.7-4.6,4.9v12.2h-3.6V11.5h3.6V17c0.6-3.3,2.7-5.8,6.3-5.8s5.6,2.4,5.9,6.1c0.5-3.5,2.6-6.1,6.3-6.1
		C343,11.1,345,14.1,345,18.3z"/>
	<path class="st1" d="M370,21.4c0,5.5-3.2,10.3-9.8,10.3c-6.4,0-11.1-4.7-11.1-10.3c0-5.5,4.4-10.3,10.7-10.3
		C366.8,11.1,370,15.9,370,21.4z M369.6,21.4h-16.9c0,4,3.1,7,8.3,7C366.4,28.4,369.5,25.7,369.6,21.4z M353.2,18.7h13
		c-0.7-2.7-2.6-4.5-6.4-4.5C356.3,14.2,354,16,353.2,18.7z"/>
	<path class="st1" d="M390.2,19.1h-3.6c0-2.4-0.9-4.5-3.6-4.5c-2.7,0-5.2,2.1-5.2,9.5v7.2h-3.6V11.9h3.6v8.3
		c0.6-5.9,2.7-8.7,6.5-8.7C388.5,11.5,390.2,14.8,390.2,19.1z"/>
</g>
</svg>
