<?xml version="1.0" encoding="utf-8"?>
<!-- Generator: Adobe Illustrator 28.1.0, SVG Export Plug-In . SVG Version: 6.00 Build 0)  -->
<svg version="1.1" id="pics_n_palette" xmlns="http://www.w3.org/2000/svg" xmlns:xlink="http://www.w3.org/1999/xlink" x="0px"
	 y="0px" viewBox="0 0 790.4 444" style="enable-background:new 0 0 790.4 444;" xml:space="preserve">
<style type="text/css">
	.st0{enable-background:new    ;}
	.st1{fill:#CBFD00;}
</style>
<g class="st0">
	<path class="st1" d="M54,170.9H24.2V33.6H54v55.3h17.5c1.4-3.8,3.9-8.2,7.5-13.1l33.3-42.2h33.9l-39.2,50.4
		c-5.6,7.5-8.4,13.3-8.4,17.5c0,4.1,2.8,9.9,8.4,17.3l40.4,52h-36.5L79.1,129c-3.3-4.2-5.7-8.5-7.3-12.9H54V170.9z"/>
</g>
<g class="st0">
	<path class="st1" d="M205.4,170.9h-29.8V33.6h29.8v55.3H268V33.6h29.8v137.3H268v-54.7h-62.6V170.9z"/>
</g>
<g class="st0">
	<path class="st1" d="M320.5,170.9l36.3-117.9c2.3-7.2,6.2-12.7,11.5-16.4c5.4-3.7,11.5-5.6,18.3-5.6c6.8,0,12.9,1.9,18.4,5.6
		c5.4,3.7,9.3,9.2,11.6,16.4l36.3,117.9h-30.4l-8-28.2l-55.7,0.2l-8,27.9H320.5z M382.3,61.7l-15.7,54.5h40.2l-15.5-54.5
		c-0.8-2.7-2.3-4.1-4.5-4.1C384.6,57.6,383.1,59,382.3,61.7z"/>
	<path class="st1" d="M503.2,170.9h-28.4V52.3c0-6.5,2.1-11.8,6.2-15.7c4.1-3.9,9.1-5.9,15-5.9c9.4,0,16.2,3.6,20.6,10.8l54.3,93
		v-101h28.2v118.5c0,6.5-2,11.7-6.1,15.6s-9,5.8-14.7,5.8c-9.7,0-16.6-3.5-20.8-10.6l-54.3-93.6V170.9z"/>
	<path class="st1" d="M664.4,170.9h-29.8V33.6h29.8v55.3H727V33.6h29.8v137.3H727v-54.7h-62.6V170.9z"/>
</g>
<g class="st0">
	<path class="st1" d="M312.2,347.1c0,20.8-7,37.4-20.9,49.9c-13.9,12.4-31.9,18.7-53.8,18.7h-50.6V278.4h51.2
		c22.3,0,40.2,6.3,53.8,18.9C305.4,309.8,312.2,326.4,312.2,347.1z M281.6,347.1c0-12.4-4-22.3-12-29.9c-8-7.5-18.5-11.3-31.4-11.3
		h-21.4v83h20.8c13.1,0,23.7-3.8,31.8-11.4C277.5,369.9,281.6,359.8,281.6,347.1z"/>
</g>
<g class="st0">
	<path class="st1" d="M327.7,415.6L364,297.7c2.3-7.2,6.2-12.7,11.5-16.4c5.4-3.7,11.5-5.6,18.3-5.6c6.8,0,12.9,1.9,18.4,5.6
		c5.4,3.7,9.3,9.2,11.6,16.4l36.3,117.9h-30.4l-8-28.2l-55.7,0.2l-8,27.9H327.7z M389.5,306.5L373.8,361H414l-15.5-54.5
		c-0.8-2.7-2.3-4.1-4.5-4.1C391.8,302.4,390.3,303.8,389.5,306.5z"/>
</g>
<g class="st0">
	<path class="st1" d="M592.5,397.9c-13.7,13.6-30.7,20.4-51,20.4c-20.3,0-37.2-6.8-50.9-20.4c-13.7-13.6-20.5-30.5-20.5-50.8
		c0-20.3,6.8-37.2,20.5-50.8c13.7-13.6,30.6-20.4,50.9-20.4c20.4,0,37.4,6.8,51.1,20.4c13.7,13.6,20.5,30.5,20.5,50.8
		C613.1,367.4,606.2,384.3,592.5,397.9z M512.5,377.7c7.9,8.3,17.5,12.4,29,12.4s21.1-4.1,29-12.4c7.9-8.3,11.8-18.5,11.8-30.6
		c0-12.1-3.9-22.3-11.7-30.6c-7.8-8.3-17.5-12.4-29.1-12.4c-11.4,0-21.1,4.2-29,12.4c-7.9,8.3-11.8,18.5-11.8,30.6
		C500.7,359.2,504.6,369.4,512.5,377.7z"/>
</g>
</svg>
