<?xml version="1.0" encoding="UTF-8"?>
<svg id="pics_n_palette" data-name="pics n palette" xmlns="http://www.w3.org/2000/svg" xmlns:xlink="http://www.w3.org/1999/xlink" viewBox="0 0 1920 1920">
  <defs>
    <style>
      .cls-1 {
        fill: #cbfd00;
      }

      .cls-2 {
        stroke: url(#linear-gradient-3);
      }

      .cls-2, .cls-3, .cls-4, .cls-5 {
        fill: none;
        stroke-miterlimit: 10;
        stroke-width: 20px;
      }

      .cls-6 {
        fill: url(#radial-gradient-5);
      }

      .cls-7 {
        fill: url(#radial-gradient-4);
      }

      .cls-8 {
        fill: #06e0ac;
      }

      .cls-9 {
        fill: url(#radial-gradient);
      }

      .cls-3 {
        stroke: url(#linear-gradient);
      }

      .cls-4 {
        stroke: url(#linear-gradient-2);
      }

      .cls-10 {
        fill: #ea3bf7;
      }

      .cls-11 {
        fill: #fddaf6;
      }

      .cls-5 {
        stroke: url(#linear-gradient-4);
      }

      .cls-12 {
        fill: url(#radial-gradient-2);
      }

      .cls-13 {
        fill: url(#radial-gradient-3);
      }

      .cls-14 {
        fill: #404dfd;
      }

      .cls-15 {
        fill: #131a33;
      }
    </style>
    <radialGradient id="radial-gradient" cx="955.9" cy="956.48" fx="955.9" fy="956.48" r="941.1" gradientUnits="userSpaceOnUse">
      <stop offset="0" stop-color="#ea3bf7"/>
      <stop offset="1" stop-color="#404dfd" stop-opacity="0"/>
    </radialGradient>
    <linearGradient id="linear-gradient" x1="829.99" y1="1632.1" x2="928.47" y2="1632.1" gradientUnits="userSpaceOnUse">
      <stop offset="0" stop-color="#06e0ac"/>
      <stop offset=".14" stop-color="#0ae0a8"/>
      <stop offset=".28" stop-color="#16e29d"/>
      <stop offset=".42" stop-color="#2be58b"/>
      <stop offset=".57" stop-color="#48e971"/>
      <stop offset=".72" stop-color="#6eef50"/>
      <stop offset=".87" stop-color="#9bf629"/>
      <stop offset="1" stop-color="#cbfd00"/>
    </linearGradient>
    <linearGradient id="linear-gradient-2" x1="1053.46" y1="1678.63" x2="1149.89" y2="1678.63" xlink:href="#linear-gradient"/>
    <linearGradient id="linear-gradient-3" x1="234.3" y1="646.33" x2="893.31" y2="646.33" xlink:href="#linear-gradient"/>
    <linearGradient id="linear-gradient-4" x1="919.96" y1="597.42" x2="1715.4" y2="597.42" xlink:href="#linear-gradient"/>
    <radialGradient id="radial-gradient-2" cx="995.9" cy="1082.08" fx="995.9" fy="1082.08" r="563.58" gradientUnits="userSpaceOnUse">
      <stop offset=".13" stop-color="#fddaf6"/>
      <stop offset=".14" stop-color="#fcd4f6"/>
      <stop offset=".39" stop-color="#ef66f6"/>
      <stop offset=".49" stop-color="#ea3bf7"/>
      <stop offset=".56" stop-color="#e43bf7"/>
      <stop offset=".64" stop-color="#d63df7"/>
      <stop offset=".72" stop-color="#bd3ff8"/>
      <stop offset=".82" stop-color="#9b43f9"/>
      <stop offset=".91" stop-color="#6f47fb"/>
      <stop offset="1" stop-color="#404dfd"/>
    </radialGradient>
    <radialGradient id="radial-gradient-3" cx="215.61" cy="1507.98" fx="215.61" fy="1507.98" r="227.19" gradientTransform="translate(658.77 19.84) rotate(2.69) scale(1 .68)" gradientUnits="userSpaceOnUse">
      <stop offset=".34" stop-color="#cbfd00"/>
      <stop offset=".4" stop-color="#c7fc03"/>
      <stop offset=".46" stop-color="#bbfa0d"/>
      <stop offset=".51" stop-color="#a9f81d"/>
      <stop offset=".56" stop-color="#8ef434"/>
      <stop offset=".62" stop-color="#6cef52"/>
      <stop offset=".67" stop-color="#42e877"/>
      <stop offset=".72" stop-color="#11e1a2"/>
      <stop offset=".73" stop-color="#06e0ac"/>
      <stop offset=".77" stop-color="#3ddebc"/>
      <stop offset=".82" stop-color="#77ddcd"/>
      <stop offset=".86" stop-color="#a7dcdc"/>
      <stop offset=".9" stop-color="#ccdbe7"/>
      <stop offset=".94" stop-color="#e7daef"/>
      <stop offset=".97" stop-color="#f7daf4"/>
      <stop offset="1" stop-color="#fddaf6"/>
    </radialGradient>
    <radialGradient id="radial-gradient-4" cx="528.81" cy="1485.95" fx="528.81" fy="1485.95" r="227.19" gradientTransform="translate(569.95 82.95) rotate(-3.97) scale(1 .68)" xlink:href="#radial-gradient-3"/>
    <radialGradient id="radial-gradient-5" cx="999.39" cy="1219.8" fx="999.39" fy="1219.8" r="255.14" gradientTransform="translate(-14.38 742.15) rotate(-1.67) scale(1 .42)" gradientUnits="userSpaceOnUse">
      <stop offset=".13" stop-color="#fddaf6" stop-opacity="0"/>
      <stop offset=".38" stop-color="#95859f" stop-opacity=".31"/>
      <stop offset=".72" stop-color="#34354f" stop-opacity=".6"/>
      <stop offset="1" stop-color="#131a33" stop-opacity=".7"/>
    </radialGradient>
  </defs>
  <circle class="cls-9" cx="955.9" cy="956.48" r="941.1"/>
  <path class="cls-3" d="m915.09,1421.65s-68.15,183.38,0,414.38h-66.36s-25.79-8.11,11.21-17.86c39.16-10.32,45.88,9.53,45.88,9.53"/>
  <path class="cls-4" d="m1070.72,1485.37s60.08,273.87,0,378.66h62.42c6.9,0,10.28-8.56,1.42-18.07-7.4-7.94-24.36-9.13-51.78,10.32"/>
  <path class="cls-2" d="m694.99,1173.77c-48.33-23.74-398.38-202.39-444.77-552.37-21.35-161.1,9.75-448.25,179.34-494.98,121.31-33.43,286.02,63.72,389.04,244.1,1.26,2.2,3.14,3.98,5.42,5.09l52.16,25.4c4.82,2.35,7.82,7.52,6.99,12.81-1.26,8.02-35.29-1.5-59.14-38.21"/>
  <path class="cls-5" d="m1295.59,1140.3c43.34-26.09,338.71-210.64,392.16-573.89,3.14-21.32,72.87-399.82-88.47-490.2-129.05-72.29-384.53,51.48-597.87,333.29-3.12,4.12-7.05,7.55-11.57,10.04l-42.09,23.19c-8.42,4.64-14.87,12.34-17.42,21.61-3.59,13.01,19.45,4.19,65.58-44.1"/>
  <path class="cls-12" d="m986.11,1538.11c-135.12-13.84-299.58-333.51-355.86-464.7-38.61-90.01-75.5-286.6,85.02-327.59,152.92-39.05,190.83,145.15,241.93,192.24,13.28,12.24,17.77,17.84,41.81-8.91,40.86-45.46,75.06-153.01,155.11-196.94,68.09-37.37,173.56-34.48,214.97,14.65,109.87,130.33-153.19,814.79-382.99,791.25Z"/>
  <g>
    <path class="cls-13" d="m980.83,1057.17c-.54,11.56-16.22,18.07-32.75,26.2-10.8,5.32-21.85,17.22-37.53,20.45-12.74,2.62-27.89-3.43-42.93-2.48-13.42.85-27.54,8.96-42.17,8.27s-27.92-10.09-41.21-12.2c-14.88-2.36-30.54,2.25-42.97-1.56-15.31-4.69-25.19-17.58-35.44-23.88-15.69-9.65-30.68-17.61-30.14-29.16s16.22-18.07,32.75-26.2c10.8-5.32,21.85-17.22,37.53-20.45,12.74-2.62,27.89,3.43,42.93,2.48,13.42-.85,27.54-8.96,42.17-8.27,14.63.69,27.92,10.09,41.21,12.2,14.88,2.36,30.54-2.25,42.97,1.56,15.31,4.69,25.19,17.58,35.44,23.88,15.69,9.65,30.68,17.61,30.14,29.16Z"/>
    <path class="cls-15" d="m920.15,1054.32c-.32,6.84-11.95,9.15-21.72,13.96-6.39,3.15-11.87,13.25-21.15,15.16-7.53,1.55-16.93-5.26-25.82-4.7-7.94.5-16.27,8.56-24.92,8.16s-16.18-9.22-24.04-10.46c-8.8-1.39-18.8,4.51-26.15,2.25-9.05-2.77-13.57-13.35-19.63-17.08-9.28-5.71-20.64-9.1-20.32-15.93.32-6.84,11.95-9.15,21.72-13.96,6.39-3.15,11.87-13.25,21.15-15.16,7.53-1.55,16.93,5.26,25.82,4.7,7.94-.5,16.27-8.56,24.92-8.16,8.66.41,16.18,9.22,24.04,10.46,8.8,1.39,18.8-4.51,26.15-2.25,9.05,2.77,13.57,13.35,19.63,17.08,9.28,5.71,20.64,9.1,20.32,15.93Z"/>
  </g>
  <g>
    <path class="cls-7" d="m1321.56,1039.43c.8,11.54-14.02,19.83-29.49,29.83-10.11,6.53-19.71,19.64-34.9,24.67-12.35,4.08-28.1-.18-42.92,2.51-13.24,2.4-26.31,12.09-40.92,13.11s-28.9-6.79-42.34-7.33c-15.05-.61-30.07,5.78-42.86,3.44-15.75-2.88-27.06-14.54-37.97-19.61-16.7-7.77-32.52-13.93-33.32-25.47-.8-11.54,14.02-19.83,29.49-29.83,10.11-6.53,19.71-19.64,34.9-24.67,12.35-4.08,28.1.18,42.92-2.51,13.24-2.4,26.31-12.09,40.92-13.11,14.61-1.01,28.9,6.79,42.34,7.33,15.05.61,30.07-5.78,42.86-3.44,15.75,2.88,27.06,14.54,37.97,19.61,16.7,7.77,32.52,13.93,33.32,25.47Z"/>
    <path class="cls-15" d="m1260.95,1043.63c.47,6.83-10.81,10.47-19.96,16.38-5.98,3.86-10.26,14.54-19.24,17.51-7.3,2.42-17.43-3.26-26.19-1.67-7.83,1.42-15.16,10.39-23.81,10.99s-17.14-7.28-25.09-7.6c-8.91-.36-18.15,6.66-25.72,5.27-9.31-1.7-15.02-11.69-21.48-14.69-9.88-4.59-21.55-6.65-22.03-13.47s10.81-10.47,19.96-16.38c5.98-3.86,10.26-14.54,19.24-17.51,7.3-2.42,17.43,3.26,26.19,1.67,7.83-1.42,15.16-10.39,23.81-10.99s17.14,7.28,25.09,7.6c8.91.36,18.15-6.66,25.72-5.27,9.31,1.7,15.02,11.69,21.48,14.69,9.88,4.59,21.55,6.65,22.03,13.47Z"/>
  </g>
  <path class="cls-10" d="m765,1146.53v27.3c-15.8-15.19-31.81-32.16-48.07-51.09.54.32,17.96,10.82,48.07,23.79Z"/>
  <path class="cls-14" d="m828.64,1169.83v56.77c-20.72-14.47-41.95-31.92-63.63-52.77v-27.3c17.28,7.43,38.76,15.68,63.63,23.3Z"/>
  <path class="cls-8" d="m892.26,1185.71v77.04c-20.61-9.02-41.83-20.93-63.62-36.15v-56.77c19.29,5.91,40.61,11.43,63.62,15.88Z"/>
  <path class="cls-1" d="m955.9,1194.48v87.94c-20.46-3.67-41.7-10.05-63.63-19.67v-77.04c20.02,3.88,41.31,6.95,63.63,8.77Z"/>
  <path class="cls-11" d="m1019.52,1195.99v89.57c-20.24,1.67-41.48.85-63.62-3.14v-87.94c20.41,1.66,41.68,2.28,63.62,1.51Z"/>
  <path class="cls-10" d="m1083.14,1189.81v82c-19.87,7.02-41.13,11.92-63.62,13.74v-89.57c20.66-.73,41.92-2.69,63.62-6.17Z"/>
  <path class="cls-14" d="m1146.78,1175.33v64.96c-19.22,12.36-40.5,23.38-63.63,31.52v-82c20.85-3.34,42.11-8.08,63.63-14.49Z"/>
  <path class="cls-8" d="m1210.4,1151.66v37.28c-17.49,17.24-38.85,35.43-63.62,51.35v-64.96c20.99-6.23,42.24-14.04,63.62-23.66Z"/>
  <path class="cls-1" d="m1265.7,1122.73s-19.65,31.11-55.3,66.21v-37.28c18.36-8.26,36.82-17.86,55.3-28.93Z"/>
  <path class="cls-6" d="m1210.4,1151.66c-21.38,9.62-42.63,17.44-63.62,23.66-21.53,6.41-42.79,11.15-63.63,14.49-21.7,3.48-42.96,5.44-63.62,6.17-21.95.78-43.22.16-63.62-1.51-22.32-1.82-43.62-4.89-63.63-8.77-23.01-4.46-44.34-9.98-63.62-15.88-24.87-7.62-46.35-15.87-63.63-23.3-30.12-12.97-47.53-23.47-48.07-23.79,16.26,18.93,32.28,35.9,48.07,51.09,21.68,20.85,42.92,38.31,63.63,52.77,21.79,15.22,43.02,27.12,63.62,36.15,21.94,9.62,43.17,16.01,63.63,19.67,22.15,3.99,43.38,4.81,63.62,3.14,22.49-1.83,43.75-6.73,63.62-13.74,23.13-8.15,44.41-19.16,63.63-31.52,24.77-15.93,46.13-34.12,63.62-51.35,35.65-35.09,55.3-66.21,55.3-66.21-18.48,11.07-36.94,20.67-55.3,28.93Z"/>
</svg>